<?xml version="1.0" standalone="no"?>
<!DOCTYPE svg PUBLIC "-//W3C//DTD SVG 20010904//EN"
 "http://www.w3.org/TR/2001/REC-SVG-20010904/DTD/svg10.dtd">
<svg version="1.0" xmlns="http://www.w3.org/2000/svg"
 width="146.000000pt" height="146.000000pt" viewBox="0 0 146.000000 146.000000"
 preserveAspectRatio="xMidYMid meet">
<metadata>
Created by potrace 1.14, written by Peter Selinger 2001-2017
</metadata>
<g transform="translate(0.000000,146.000000) scale(0.100000,-0.100000)"
fill="#000000" stroke="none">
<path d="M555 1335 c-14 -13 -25 -30 -25 -37 0 -7 6 -4 12 7 6 11 20 28 32 37
11 10 17 18 13 18 -4 0 -19 -11 -32 -25z"/>
<path d="M751 1355 c3 -2 61 -5 129 -6 128 -2 215 -17 131 -23 -8 -1 -16 -7
-19 -14 -2 -6 2 -10 10 -9 7 2 10 2 5 0 -4 -3 -5 -10 -1 -16 3 -7 -3 -2 -14
11 -20 21 -80 33 -67 12 3 -5 1 -10 -4 -10 -6 0 -11 5 -11 10 0 6 -15 10 -32
9 -28 0 -30 -2 -13 -9 18 -8 17 -9 -6 -9 -15 -1 -33 -9 -40 -18 -8 -9 -9 -14
-4 -11 6 4 12 -3 12 -15 2 -18 0 -19 -8 -7 -9 12 -10 10 -6 -7 3 -13 1 -23 -3
-23 -4 0 -14 -47 -21 -105 -11 -98 -27 -147 -30 -93 -1 17 -3 18 -6 6 -7 -27
-33 -22 -33 6 0 34 29 186 42 219 6 15 14 27 19 27 4 0 10 -12 12 -27 l4 -28
2 26 c0 15 -6 32 -14 39 -12 10 -18 8 -35 -11 -10 -13 -20 -33 -20 -44 0 -11
-5 -27 -10 -35 -8 -12 -10 -11 -10 7 0 24 -15 39 -24 24 -4 -5 -2 -12 4 -16 5
-3 9 -16 9 -28 -1 -15 -3 -17 -6 -6 -6 23 -55 48 -61 31 -8 -24 -34 -44 -42
-32 -5 9 -9 9 -14 1 -4 -6 -2 -11 3 -11 6 0 11 -12 10 -27 0 -17 -3 -22 -6
-13 -4 8 -12 20 -19 27 -9 10 -13 7 -16 -12 -4 -16 0 -25 11 -28 11 -3 10 -5
-5 -6 -20 -1 -60 -64 -50 -80 3 -3 -4 -7 -15 -7 -20 0 -25 11 -9 21 6 3 10 11
10 18 0 6 -7 1 -16 -11 -8 -12 -24 -22 -34 -22 -10 0 -22 -5 -26 -11 -5 -8 3
-10 25 -7 17 2 31 1 31 -3 0 -5 8 -5 17 -2 15 6 16 5 3 -9 -10 -11 -17 -12
-22 -5 -5 8 -16 8 -40 1 -19 -6 -42 -8 -52 -4 -10 3 -46 0 -80 -7 -33 -7 -74
-15 -89 -17 -32 -4 -28 0 -54 -51 -11 -22 -30 -59 -42 -81 -12 -24 -18 -50
-15 -60 4 -14 3 -16 -4 -6 -7 10 -11 4 -16 -23 -4 -20 -9 -35 -12 -33 -2 3 1
31 7 62 6 32 8 60 6 62 -5 5 -34 -145 -43 -221 -5 -48 -3 -54 45 -127 32 -48
60 -80 74 -83 12 -3 58 -6 102 -7 l80 -3 3 -33 c2 -18 -1 -54 -7 -80 -9 -46
-8 -49 35 -118 24 -40 51 -75 60 -78 9 -3 114 -6 233 -6 249 0 260 3 282 83 7
23 16 46 21 52 4 5 8 29 8 55 0 25 8 61 18 80 l17 35 153 5 c150 5 154 6 176
31 15 18 28 56 40 120 10 52 26 136 37 186 10 51 19 101 19 112 0 22 -98 171
-112 171 -5 0 -2 -7 6 -16 9 -8 16 -23 16 -32 0 -13 -5 -11 -24 8 -13 14 -21
28 -19 33 2 4 -15 7 -39 7 -24 0 -66 3 -94 6 l-51 6 13 72 c21 105 18 130 -14
163 -15 15 -38 45 -51 66 l-23 37 -145 0 c-81 0 -144 -2 -142 -5z m152 -72
c-7 -2 -19 -2 -25 0 -7 3 -2 5 12 5 14 0 19 -2 13 -5z m118 -74 c-12 -19 -21
-30 -21 -26 0 12 33 67 38 63 1 -2 -6 -19 -17 -37z m-301 -64 c0 -8 -2 -15 -4
-15 -2 0 -6 7 -10 15 -3 8 -1 15 4 15 6 0 10 -7 10 -15z m290 -130 c7 -9 8
-15 2 -15 -5 0 -12 7 -16 15 -3 8 -4 15 -2 15 2 0 9 -7 16 -15z m-546 -41 c3
-8 2 -12 -4 -9 -6 3 -10 10 -10 16 0 14 7 11 14 -7z m263 -170 c3 -9 0 -26 -7
-38 -12 -19 -12 -20 3 -7 10 7 17 21 18 30 0 9 3 11 5 4 8 -19 -26 -63 -50
-63 -17 0 -18 2 -6 10 13 8 13 10 -2 10 -23 0 -31 16 -24 46 7 28 53 34 63 8z
m-279 -9 c8 -3 10 -10 6 -17 -5 -9 -3 -9 9 1 10 8 17 9 17 3 0 -6 -10 -18 -22
-27 -19 -13 -43 -14 -153 -9 -119 6 -144 13 -145 36 0 4 7 5 15 2 8 -4 15 -1
15 4 0 6 7 12 16 14 23 4 226 -2 242 -7z m759 -12 c7 -19 -63 -31 -174 -29
-100 1 -133 11 -118 35 10 16 287 10 292 -6z m-884 -250 c-13 -2 -35 -2 -50 0
-16 2 -5 4 22 4 28 0 40 -2 28 -4z m337 -5 c0 -9 4 -8 10 2 13 19 12 -44 -1
-80 -7 -20 -7 -16 -4 15 9 66 -11 18 -24 -62 -7 -40 -9 -78 -5 -84 4 -8 3 -9
-4 -5 -8 5 -12 0 -12 -12 0 -11 -7 -22 -15 -26 -10 -4 -15 1 -15 16 0 35 32
212 42 231 10 20 28 23 28 5z m-3 -140 c-3 -7 -5 -2 -5 12 0 14 2 19 5 13 2
-7 2 -19 0 -25z m-10 -40 c-3 -8 -6 -5 -6 6 -1 11 2 17 5 13 3 -3 4 -12 1 -19z"/>
<path d="M373 763 c15 -2 37 -2 50 0 12 2 0 4 -28 4 -27 0 -38 -2 -22 -4z"/>
<path d="M1128 763 c7 -3 16 -2 19 1 4 3 -2 6 -13 5 -11 0 -14 -3 -6 -6z"/>
<path d="M812 1314 c-7 -8 -8 -14 -3 -14 10 0 25 19 20 25 -2 1 -10 -3 -17
-11z"/>
<path d="M666 1305 c4 -8 11 -15 16 -15 6 0 5 6 -2 15 -7 8 -14 15 -16 15 -2
0 -1 -7 2 -15z"/>
<path d="M705 1280 c-3 -5 -2 -10 4 -10 5 0 13 5 16 10 3 6 2 10 -4 10 -5 0
-13 -4 -16 -10z"/>
<path d="M781 1204 c0 -11 3 -14 6 -6 3 7 2 16 -1 19 -3 4 -6 -2 -5 -13z"/>
<path d="M761 1074 c0 -11 3 -14 6 -6 3 7 2 16 -1 19 -3 4 -6 -2 -5 -13z"/>
<path d="M125 1000 c-10 -11 -15 -23 -12 -27 4 -3 7 -1 7 6 0 6 15 18 33 26
25 11 27 14 11 15 -11 0 -29 -9 -39 -20z"/>
<path d="M82 870 c0 -14 2 -19 5 -12 2 6 2 18 0 25 -3 6 -5 1 -5 -13z"/>
</g>
</svg>
